<?xml version="1.0" encoding="UTF-8"?><svg id="Layer_2" xmlns="http://www.w3.org/2000/svg" viewBox="0 0 266.67 239.8"><defs><style>.cls-1{fill:#ede5dd;}</style></defs><g id="Layer_1-2"><g><path class="cls-1" d="m248.52,122.81c-3.17,0-6.77,1.54-9.32,2.89,0-.29,0-.58-.01-.86-.12-4.37-3.19-7.66-7.14-7.66h-96.61c-3.92,0-6.99,3.28-7.14,7.63-.51,14.63,2.46,29.19,8.35,41,7.19,14.39,18.49,24.18,32.68,28.32,4.71,1.37,9.56,2.06,14.4,2.06s9.84-.71,14.62-2.12c13.86-4.1,24.94-13.73,32.1-27.85,2.4,1.34,5.38,1.93,8.52,1.93,3.49,0,7.16-.7,10.42-1.84,10.49-3.66,17.27-13.42,17.27-24.87s-6.78-18.61-18.15-18.61Zm-52.22,64.33c-8.16,2.42-16.79,2.43-24.95.06-17.35-5.06-37.15-24.37-35.84-62.13.01-.32.09-.54.15-.67h96.18c.06.12.13.33.14.64,1.03,37.74-18.57,57.04-35.67,62.11Zm50.72-27.66c-5.92,2.07-11.62,1.69-13.6.06,3.03-7.83,4.92-16.53,5.56-25.47.34-.1.68-.24.99-.45,1.73-1.17,6.09-3.58,8.55-3.58,7.35,0,10.93,3.73,10.93,11.39,0,6.63-3.27,14.86-12.43,18.05Z"/><path class="cls-1" d="m170.61,211.19c-1.24-.18-2.42-.34-3.37-.54-10.56-2.14-19.96-4.06-32.46-14.64-6.66-5.64-11.85-12.81-15.37-20.8-.24-.55-.48-1.11-.72-1.66-1.47-3.46-2.8-6.98-3.99-10.55-1.23-3.69-2.25-7.44-3.26-11.2-.24-.88-.44-1.77-.63-2.66-.37-1.71-.67-3.43-.94-5.16-.39-2.52-.7-5.05-.95-7.59-.32-3.31-.53-6.63-.64-9.95-.08-2.19-.11-4.39-.11-6.58v-.06c0-19.92,3.89-39.23,12.13-57.23,3.1-6.77,7.57-12.84,13.16-17.76,13.18-11.62,22.88-13.59,33.81-15.82.95-.19,2.12-.36,3.37-.54,5.37-.76,11.45-1.62,13.39-6.14,1.09-2.54.51-5.43-1.73-8.57-4.54-6.38-13.21-10.13-28.98-12.53C135.41-1.51,106.85,0,85.12,9.5c-2.59-2.32-6.36-2.91-9.52-1.43-9.73,4.58-24.92,14.45-32.01,21.84-13.73,14.3-20.12,26.64-22.42,31.82-4.67.21-8.92,3.16-10.63,7.73l-.38,1.01C6.19,81.08.19,97.12,0,119.77v.12c.19,22.65,6.19,38.69,10.16,49.3l.38,1.01c1.7,4.57,5.95,7.51,10.61,7.73,2.31,5.18,8.69,17.52,22.42,31.82,7.09,7.39,22.28,17.26,32.01,21.84,1.17.55,2.43.82,3.68.82,2.12,0,4.22-.78,5.85-2.24,15.8,7.11,33.9,9.64,49.3,9.64,7.02,0,13.49-.52,18.91-1.38,11.73-1.84,23.36-4.64,28.97-12.52,2.24-3.15,2.82-6.03,1.73-8.57-1.94-4.52-8.02-5.38-13.39-6.14ZM152.22,8.35c13.48,2.05,20.94,5.01,24.19,9.58.57.8.79,1.31.87,1.57-1.2.9-5.53,1.51-7.67,1.81-1.35.19-2.63.37-3.79.61-15.42,3.13-27,6.56-43.65,23.68l-31.39-30.64c20.01-7.9,45.3-9.07,61.44-6.61Zm-103.42,26.56c6.44-6.71,20.92-16.09,29.88-20.3.55-.26,1.23-.14,1.68.3l37.43,36.51c-5.2,9.63-9.23,19.72-12.26,30.67L28.54,63.03c2.61-5.37,8.66-16.03,20.26-28.12Zm-31.5,132.77l-.38-1.02c-3.79-10.13-9.53-25.45-9.7-46.83.18-21.38,5.91-36.69,9.7-46.83l.38-1.02c.7-1.87,2.47-3.05,4.39-3.05.37,0,.75.05,1.13.14l80.9,20c-1.1,5.11-2.78,15.46-2.78,30.73v.06c0,15.26,1.69,25.61,2.78,30.72l-80.93,20.01c-2.3.55-4.66-.69-5.49-2.92Zm63.03,57.08c-.45.44-1.12.56-1.68.3-8.96-4.21-23.43-13.59-29.88-20.3-11.61-12.1-17.65-22.76-20.26-28.13l76.99-19.04c3.03,10.95,7.06,21.03,12.25,30.66l-4.53,4.42-32.9,32.09Zm96.06-3.04c-3.24,4.56-10.48,7.42-24.21,9.58-15.65,2.46-40.45,2.04-61.47-6.56l26.84-26.2,4.6-4.49c16.65,17.12,28.23,20.55,43.65,23.68,1.16.23,2.44.42,3.79.61,2.14.3,6.46.92,7.67,1.81-.08.26-.3.77-.87,1.57Z"/></g></g></svg>