<?xml version="1.0" encoding="UTF-8"?><svg id="Layer_2" xmlns="http://www.w3.org/2000/svg" viewBox="0 0 408.84 233.54"><defs><style>.cls-1{fill:#ede5dd;}</style></defs><g id="Layer_1-2"><g><g><path class="cls-1" d="m108.66,91.59c.98,3.14,2.62,5.42,4.89,6.76,1.45.85,3.12,1.28,4.93,1.28,1.03,0,2.1-.14,3.2-.42,6.12-1.54,10.33-7.44,13.41-14.08,2.31,4.61,6.49,7.24,11.38,7.24,1.34,0,2.72-.2,4.14-.6,4.66-1.33,9-4.8,12.3-9.82,2.19.38,4.61.24,6.94-.42,5.18-1.48,9.24-5.03,12.32-10.76,1.46,2.99,3.64,5.21,6.39,6.47,1.63.74,3.41,1.12,5.26,1.12,1.55,0,3.14-.26,4.7-.8,4.58-1.55,8.73-5.23,11.75-10.4,2.21.28,4.62.02,6.9-.76,3.98-1.35,7.22-3.93,9.76-7.8,2,2.55,5.31,4.32,9.7,4.32,2.35,0,5.01-.51,7.95-1.67,4.57-1.82,7.82-4.75,9.38-8.47,1.46-3.49,1.32-7.5-.4-11.29-2.33-5.14-7.15-8.78-11.39-11.99-2.42-1.83-4.72-3.57-6.42-5.43.63-4.9.5-8.36-.37-10.29-.49-1.08-1.32-1.84-2.39-2.19-1.05-.35-2.28-.26-3.54.24-1.68.67-2.84,2.51-3.17,5.05-.33,2.51.19,5.42,1.45,8.2l.43.95c-.26,6.84-.54,12.27-1.48,17.74-.14.82-.36,1.96-.43,2.24-2.07,8.09-6.48,13.14-10.61,14.54-.94.32-1.86.46-2.67.44,2.28-6.91,2.3-14.12.04-19.97-1.34-3.45-3.43-5.97-6.05-7.27-2.56-1.27-5.56-1.39-8.68-.33-4.16,1.41-7.75,4.78-10.57,9.86l.61-13.12c1.65-7.11,2-11.27,1.14-13.48-.36-.92-1.05-1.62-1.95-1.97-.89-.35-1.93-.34-3,.02-1.74.59-2.87,2.5-3.1,5.27-.32,5.15-1.44,29.89-1.56,34.37-.06,2.02-.06,3.86,0,5.6-.51.56-.74,1.22-.8,1.42-2.51,7.98-6.21,13.03-10.4,14.23-.96.27-1.88.38-2.69.31,2.65-6.8,3.07-13.99,1.13-19.94-2.28-6.99-7.76-10.17-14.29-8.3-4.24,1.21-8.01,4.4-11.1,9.34l1.33-13.07c2.03-7.02,2.61-11.16,1.88-13.41-.3-.93-.96-1.67-1.84-2.06-.87-.39-1.91-.44-3-.13-1.77.5-3,2.36-3.38,5.11-.6,5.13-3.08,29.78-3.44,34.25-.17,2.03-.28,3.9-.3,5.66-.23.29-.44.65-.6,1.12-4.92,14.25-9.01,18.01-11.58,18.66-.98.25-1.79.14-2.47-.32-.84-.58-1.53-1.74-2-3.37-1.19-4.14-.84-10.44,1.07-19.24,1.72-5.32,2.22-8.19,1.74-9.87-.56-1.94-2.51-2.9-4.75-2.33-2.1.53-3.05,3.08-4.65,9.99-.6,2.54-1.58,7.24-1.93,12.19-.43.48-.66,1-.72,1.15-2.81,7.11-8.16,13.49-16.73,19.94.4-3.06.74-6.14,1.02-9.17.56-6.14,1.9-11.21,4.01-15.11.2-.43.4-.82.58-1.15.55-1.04.98-1.86.76-2.79-.21-.87-.76-1.59-1.55-2.03-.81-.45-1.8-.57-2.85-.35-1.92.4-3.79,3.27-9.51,14.6-4.36,8.38-11.68,19.83-24.76,22.57-5.58,1.17-10.72.24-14.86-2.67-4.24-2.99-7.29-7.94-8.81-14.33-5.25-21.97,13.17-46.36,31.38-50.16,7.53-1.57,13.25.6,15.79,5.96-2.06,5.37-2.77,8.95-2.21,11.26.6,2.5,2.7,3.69,5.49,3.11,3.57-.75,6.52-6.62,4.97-13.08-1.29-5.42-4.33-9.55-8.77-11.96-4.51-2.44-10.35-3.01-16.89-1.64-22.27,4.66-44.2,32.46-38.03,58.26,1.98,8.29,6.27,14.69,12.4,18.52,5.92,3.7,13.14,4.8,20.89,3.18,11.7-2.45,19.38-10.12,23.44-15.43-.31,2.72-.67,5.51-1.16,8.33-4.05,2.54-8.23,4.93-12.28,7.25-16.82,9.62-31.34,17.92-28.12,31.39.73,3.06,2.62,5.55,5.45,7.22,2.31,1.35,5.07,2.04,8.04,2.04,1.47,0,2.98-.17,4.52-.51,15.24-3.27,24.98-17.83,29.75-44.5,6.17-4.28,14.06-10.4,19.65-18.45Zm124.15-45.07c.97-5.32,1.64-9.83,2.06-13.96.9.76,1.79,1.47,2.67,2.17,3.53,2.81,6.86,5.47,8.8,9.74,1.77,3.89.77,9.18-4.57,11.3-2.9,1.15-5.16.71-6.55.14-1.62-.67-2.73-1.8-3.08-2.57-.52-1.14.34-5.24.67-6.82Zm-43.71,8.46c2.1-7.37,7.04-14.26,11.26-15.69.53-.18.97-.25,1.33-.25.59,0,.98.18,1.25.34.91.55,1.74,1.77,2.46,3.64,1.77,4.58,1.98,10.49.56,15.94-.42,1.57-.45,2.49-1.74,5.11-1.94,3.89-4.68,6.59-7.75,7.63-3.11,1.05-6-.73-7.52-4.67-1.2-3.09-1.14-7.59.15-12.05Zm-46.65,13.79c2.5-7.26,7.82-13.91,12.1-15.13.33-.09.74-.21,1.19-.21,1.12,0,2.51.7,3.64,4.18,1.52,4.66,1.4,10.58-.32,15.94-.78,2.71-.87,2.6-2.02,5.02-2.16,3.79-5.03,6.35-8.16,7.25-1.42.41-2.81.24-4.02-.48-1.42-.84-2.54-2.41-3.23-4.54-1.03-3.14-.72-7.64.81-12.02Zm-84.64,79.28c-4.43.92-7.69-.66-8.52-4.13-2-8.39,9.83-15.49,23.53-23.72,2.32-1.39,4.7-2.82,7.09-4.3-4.51,19.21-11.94,30.02-22.1,32.15Z"/><path class="cls-1" d="m118.27,52.39c.48,0,.99-.06,1.49-.19,1.57-.39,2.83-1.44,3.55-2.95.59-1.23.76-2.68.44-3.79-.36-1.25-1.18-2.24-2.3-2.79-1.05-.52-2.33-.63-3.6-.31-3.12.78-4.77,4.39-4.06,6.86.57,1.98,2.34,3.18,4.47,3.18Z"/><path class="cls-1" d="m176.24,96.05c.36-1.38.23-2.08-.17-3.05-.31-.74-.95-1.33-1.77-1.62-.81-.29-1.72-.27-2.58.04-1.28.46-1.82,1.63-2.45,2.98-1.16,2.48-2.91,6.23-10.45,8.96-7.63,2.77-14.43,3.19-21.62,3.64-8.15.51-16.59,1.03-27.13,4.91-15.27,5.64-23.84,20.85-18.72,33.21,3.05,7.35,9.89,11.58,17.71,11.58,2.61,0,5.33-.47,8.04-1.46,8.91-3.23,11.47-9.44,10.41-12.01-.45-1.09-1.21-1.56-1.77-1.77-.76-.28-1.63-.26-2.53.07-1.31.48-1.89,1.53-2.47,2.76l-.02.05c-.83,1.98-2.95,3.64-6.15,4.8-3.45,1.25-6.76,1.29-9.56.1-2.77-1.18-4.94-3.49-6.27-6.7-3.67-8.85,2.66-20.07,13.55-24.02,9.18-3.33,16.44-3.77,24.12-4.24,7.56-.46,15.38-.94,25-4.43,11.55-4.19,14.28-11.61,14.85-13.78Z"/><path class="cls-1" d="m158.99,143.4c-.77-.33-1.63-.36-2.42-.07-.97.35-1.46.95-2,1.93-.18.32-.92,1.42-2.63,2.04-2.71.98-5.61,1.37-8.67,1.78-2.03-14.21-.94-24.23,3.22-29.76.79-1,1.52-2.21.98-3.52-.36-.87-1.05-1.51-1.95-1.83-.86-.3-1.82-.27-2.79.08-.12.04-11.64,4.62-7.18,36.55h0c-.38.11-.76.23-1.11.35-8.26,3-11.87,9.5-10.64,12.49.69,1.66,2.59,2.42,4.43,1.75,1.32-.48,1.78-1.46,2.14-2.21.64-1.24,2.09-4.05,5.98-5.69,2.21,21.14-1.42,31.05-12.75,35.16-7.75,2.81-14.71.46-17.33-5.86-2.97-7.17.83-11.03,1.62-11.74,1.15-1.03,2.38-2.44,1.63-4.25-.8-1.94-2.55-2.63-4.68-1.86-1.36.49-4.06,2.78-5.84,6.32-1.54,3.08-2.84,8.06-.27,14.26,2.98,7.19,9.53,11.15,17.54,11.14,3.14,0,6.51-.61,9.98-1.87,15.48-5.62,20.89-18.52,17.99-43.06.09-.01.18-.02.27-.04,3.13-.41,6.36-.83,9.59-2,3.1-1.13,4.78-2.9,5.63-4.19,1.01-1.52,1.4-3.16.98-4.16-.34-.81-.95-1.45-1.73-1.78Z"/><path class="cls-1" d="m285.31,84.05c.45.14.94.2,1.43.2.71,0,1.45-.14,2.16-.42,1.5-.58,2.6-1.78,3.11-3.37.41-1.29.37-2.75-.1-3.81-1.06-2.37-3.7-3.36-6.29-2.35h0c-2.98,1.16-4.11,4.94-3.06,7.3.54,1.2,1.51,2.07,2.75,2.44Z"/><path class="cls-1" d="m397.7,122.29c-11.26-2.3-23.18-2.32-34.99-.68-1.23-8.63-2.78-19.76-2.8-19.9,0-.04-.02-.08-.03-.11-.27-2.58-.57-5.14-.9-7.61h0c-.57-4.14-1.62-13.5-1.53-19.3.85-5.37,1.15-8.39.39-10.03-.39-.85-1.09-1.48-1.97-1.76-.88-.28-1.87-.22-2.86.19-1.97.8-2.63,3.07-2.63,9.01.03,5.8.06,13.74-1.16,19.36-1.27,5.89-3.24,12.86-7.22,14.47-.73.3-1.39.33-2.02.09-1.01-.37-1.95-1.45-2.73-3.12-1.73-3.73-2.37-10.03-1.96-19.22.87-5.5.93-8.39.2-9.96-.39-.85-1.09-1.48-1.97-1.76-.87-.28-1.86-.22-2.86.19-1.91.78-2.43,3.39-2.94,10.39-.18,2.77-.37,7.98.14,13.17-2.75,14.26-6.2,18.42-8.62,19.38-2.8,1.11-4.53-1.17-5.49-3.28-1.98-4.37-2.79-12.93-2.41-25.42,1.85-13.2,3.13-23.6,1.44-27.34-.86-1.9-2.92-2.65-5-1.82-2.05.81-2.7,4.18-3.23,10.53-.4,4.73-1.92,24.64-.27,37.89-2.82,13.73-6.21,17.75-8.6,18.68-.94.37-1.75.36-2.49-.02-.91-.47-1.76-1.54-2.46-3.09-1.77-3.96-2.31-10.25-1.65-19.21.95-5.49,1.05-8.39.33-10-.83-1.85-2.9-2.56-5.04-1.73-2.01.78-2.59,3.43-3.2,10.48-.27,2.97-.63,8.8,0,14.49-2.91,13.25-6.28,17.16-8.65,18.06-2.14.81-3.24-.52-3.79-1.78-1.56-3.58-1.06-8.07-.58-12.41.5-4.52,1.02-9.19-.69-13.12-.97-2.23-2.72-3.91-4.91-4.72-2.14-.79-4.63-.73-7,.17-4.41,1.68-7.65,7.62-9.68,12.7-2.08-4.68-6.69-6.46-11.79-4.52-3.72,1.42-6.6,5.15-8.75,9.25-.03-.94-.18-1.69-.43-2.27-.37-.85-1.04-1.49-1.9-1.8-.85-.31-1.81-.27-2.78.1-1.02.39-2.74,1.49-2.75,4.44-.06,7.21-.01,13.69.14,19.53-3.07,13.69-6.54,17.66-8.94,18.55-2.27.84-4.06-.21-5.3-3.14-2.02-4.75-1.51-13.42-1.17-19.2,1.05-5.44,1.42-8.34.7-10.04-.79-1.87-2.85-2.61-5.01-1.81-1.6.6-2.67,2.37-2.94,4.68-2.9-1.28-6.35-1.22-10.13.18-11.61,4.31-21.07,22.9-15.19,36.73,1.53,3.6,3.95,6.18,7,7.46,1.46.61,3.02.92,4.64.92s3.39-.32,5.13-.97c4.61-1.71,8.19-6.17,10.67-13.27,1.28,2.05,3.02,3.55,5.12,4.39,2.51,1.01,5.41,1.01,8.15-.01,3.53-1.31,6.19-4.11,8.23-7.63.09.4.22.78.43,1.26.58,1.34,1.76,1.91,2.93,1.91.45,0,.9-.08,1.31-.24,2.77-1.06,2.52-3.7,2.42-4.82-.85-9.47-.48-17.98.98-22.78,2.01-6.54,6.08-14.23,9.67-15.6.57-.22,1.05-.25,1.42-.09.5.21.82.76,1,1.18.21.49.61,1.81.88,5.05.19,3.42.35,7.7.51,11.83.16,4.33.33,8.81.54,12.24l.04.47c.07.81.14,1.57.46,2.31.83,1.9,2.87,2.29,4.46,1.68,2.77-1.06,2.52-3.7,2.42-4.82-.41-4.61-1.15-16.06.89-22.74,2.01-6.54,5.85-14.15,9.03-15.36.52-.2.97-.22,1.33-.06.39.18.74.59,1.01,1.19,1.13,2.59.69,6.52.23,10.67-.56,5.07-1.15,10.3.75,14.67,1.18,2.71,3.03,4.65,5.34,5.63,2.3.97,4.95.94,7.64-.09,5.07-1.93,8.29-6.92,10.48-12.72,1.24,1.81,2.76,3.11,4.54,3.87,1.17.5,2.42.74,3.73.74,1.43,0,2.94-.3,4.46-.89,5.12-2,8.32-7.13,10.46-13.05,2.17,3.14,5.07,4.78,8.43,4.78,1.49,0,3.06-.32,4.7-.97,5.12-2.03,8.29-7.19,10.39-13.14,2.09,3.1,4.96,4.73,8.23,4.73,1.41,0,2.9-.3,4.43-.92,3.52-1.43,6.21-4.8,8.19-10.29.02.15.03.31.05.47-.03.27-.03.54,0,.82,0,.04.11.78.28,2.01.04.47.2,1.41.2,1.41.57,4.07,1.55,11.05,2.37,16.82-24.73,4.9-48.16,16.65-62.86,29.55-9.07,7.95-11.59,18.3-6.58,27,3.89,6.76,13.23,13.3,27.98,13.3,3.93,0,8.25-.46,12.94-1.52,17.92-4,30.06-15.21,35.11-32.41,3.81-12.95,2.54-25.85,1.94-30.14,13.9-1.94,24.81-.95,32.35.59,2.05.42,4.09-.8,4.54-2.73.45-1.93-.86-3.83-2.91-4.25Zm-204.68,29.32c-2.06,8.33-4.97,13.25-8.65,14.62-2.81,1.04-5.56-.49-7.01-3.9-3.68-8.67.84-25.16,9.78-28.48,1.08-.4,2.32-.72,3.53-.72,1.52,0,2.99.51,4.02,1.99-.01,5.55-.31,10.51-1.67,16.49Zm131.88,32.66c-12.22,2.73-26.98,1.24-32.44-8.23-3.34-5.8-1.44-12.69,5.09-18.41,11.37-9.97,27.79-18.77,45.06-24.16,4.77-1.49,9.31-2.64,13.6-3.51,1.23,9.27,3.88,46.45-31.32,54.31Z"/></g><g><path class="cls-1" d="m245.37,197.94c-1.92,0-3.62-1.35-5.51-4.39l-3.94-6.35c-.12-.2-.16-.38-.11-.54.05-.16.17-.3.38-.41l17.56-9.55c.17-.09.32-.14.46-.14.22,0,.41.13.59.38l3.35,5.39c1.47,2.36,1.98,4.28,1.57,5.88-.39,1.54-1.68,2.89-3.94,4.12-.83.45-2.21.93-3.59.93-.37,0-.73-.03-1.06-.1l-.28-.06.03.27c.13,1.33-.8,2.74-2.36,3.59-1.19.65-2.22.96-3.14.96Zm-.84-10.63c-.21,0-.43.06-.65.18l-1.26.69c-.64.35-.79.89-.42,1.49l1.01,1.62c.5.81.98,1.48,1.77,1.48h0c.32,0,.68-.11,1.09-.34,1.54-.84,1.13-1.76.44-2.88l-1.04-1.67c-.3-.48-.67-.58-.94-.58Zm7.71-4.16c-.21,0-.43.06-.65.18l-2.09,1.14c-.32.17-.51.39-.59.65-.07.26-.02.54.17.84l.86,1.39c.48.77.94,1.4,1.78,1.4h0c.42,0,.91-.16,1.53-.5,1.91-1.04,1.55-1.92.8-3.14l-.86-1.39c-.3-.48-.67-.58-.94-.58Z"/><path class="cls-1" d="m245.37,197.75c-1.84,0-3.48-1.32-5.33-4.29l-3.94-6.35c-.09-.15-.12-.28-.09-.39s.13-.21.29-.29l17.56-9.55c.13-.07.26-.11.35-.11.05,0,.21,0,.41.29l3.34,5.38c2.8,4.51,2.13,7.32-2.29,9.73-.81.44-2.15.91-3.48.91-.35,0-.7-.03-1.02-.1l-.56-.11.05.54c.12,1.25-.76,2.59-2.26,3.4-1.16.63-2.15.94-3.03.94Zm-.84-10.63c-.25,0-.5.07-.76.21l-1.26.69c-.74.41-.93,1.06-.5,1.76l1.01,1.62c.54.87,1.06,1.58,1.96,1.58.36,0,.75-.12,1.2-.37,1.71-.93,1.22-2.02.52-3.15l-1.04-1.67c-.35-.56-.8-.68-1.12-.68Zm7.71-4.16c-.25,0-.5.07-.76.21l-2.09,1.14c-.37.2-.6.46-.69.78-.08.31-.02.64.19.98l.86,1.39c.49.79,1.01,1.5,1.96,1.5.46,0,.98-.17,1.64-.52,2.07-1.13,1.64-2.17.87-3.41l-.86-1.39c-.35-.56-.8-.68-1.12-.68Z"/><path class="cls-1" d="m261.41,217.48c-.16,0-.33-.08-.5-.22l-2.56-2.31c-.36-.33-.37-.64-.02-.98l1.92-1.86c.52-.51.51-1.05-.03-1.54l-1.97-1.78c-.26-.23-.53-.35-.81-.35s-.57.13-.83.38l-1.92,1.86c-.18.18-.36.27-.53.27s-.34-.08-.52-.25l-2.56-2.31c-.35-.32-.33-.68.07-1.07l9.35-9.07c1.63-1.58,3.46-3.05,5.69-3.05,1.7,0,3.45.83,5.35,2.55,5.03,4.54,2.57,7.72-.13,10.34l-9.35,9.07c-.22.22-.44.33-.64.33Zm4.45-16.94c-.61,0-1.1.36-1.74.98l-2.4,2.33c-.5.48-.49,1.07.03,1.54l1.97,1.78c.28.23.55.34.82.34.29,0,.58-.13.85-.39l2.38-2.31c.58-.56.94-1.01.98-1.52.04-.54-.29-1.1-1.07-1.81-.72-.65-1.28-.94-1.82-.94Z"/><path class="cls-1" d="m261.41,217.29c-.11,0-.23-.06-.35-.17l-2.56-2.31c-.28-.26-.29-.44-.01-.7l1.92-1.86c.3-.29.45-.6.44-.92s-.17-.62-.48-.9l-1.97-1.78c-.3-.27-.62-.41-.96-.41s-.68.15-.98.44l-1.92,1.86c-.14.13-.27.21-.38.21s-.23-.07-.37-.19l-2.56-2.31c-.19-.17-.33-.4.08-.79l9.35-9.07c1.6-1.55,3.38-2.99,5.54-2.99,1.64,0,3.35.81,5.21,2.49,4.89,4.41,2.61,7.39-.14,10.06l-9.35,9.07c-.18.17-.35.27-.49.27Zm4.46-16.94c-.68,0-1.21.38-1.89,1.04l-2.4,2.33c-.29.28-.43.59-.43.92,0,.32.17.63.46.9l1.97,1.78c.32.27.65.4.97.4.35,0,.69-.15,1-.45l2.38-2.31c.61-.59,1-1.07,1.04-1.64.05-.61-.3-1.21-1.13-1.96-.76-.69-1.37-1-1.97-1Z"/><path class="cls-1" d="m289.12,231.24c-.11,0-.23-.03-.37-.08l-4.4-1.7c-.41-.16-.61-.39-.69-.81l-1.34-6.63c-.05-.23-.22-.38-.44-.38-.1,0-.2.03-.3.09l-1.88,1.07c-.16.09-.28.22-.36.4l-1.35,3.05c-.13.31-.33.46-.59.46-.11,0-.24-.03-.38-.08l-3.35-1.29c-.45-.17-.59-.49-.4-.91l7.77-17.59c.14-.31.33-.46.6-.46.11,0,.24.03.38.08l3.35,1.29c.48.19.6.46.4.91l-2.44,5.52c-.08.17-.07.33.01.45.06.09.17.14.29.14.1,0,.21-.04.32-.11l7.22-4.14c.22-.14.42-.2.63-.2.15,0,.3.03.47.1l4.35,1.68c.27.1.43.25.45.39.02.15-.12.33-.38.49l-9.3,5.34c-.11.08-.37.26-.26.61l2.33,11.66c.06.24.04.42-.06.53-.06.07-.16.11-.28.11Z"/><path class="cls-1" d="m289.12,231.05c-.08,0-.18-.02-.29-.06l-4.4-1.7c-.34-.13-.49-.31-.56-.67l-1.34-6.63c-.07-.32-.33-.54-.64-.54-.14,0-.28.04-.42.13l-1.87,1.06c-.2.11-.35.27-.45.5l-1.35,3.05c-.13.3-.28.33-.4.33-.08,0-.18-.02-.3-.06l-3.35-1.29c-.34-.13-.43-.33-.29-.65l7.77-17.58c.13-.3.28-.33.4-.33.08,0,.18.02.3.06l3.35,1.29c.37.14.44.3.29.65l-2.44,5.52c-.1.24-.09.46.03.63.11.15.27.23.47.23.15,0,.3-.05.44-.15l7.21-4.13c.19-.12.35-.17.52-.17.12,0,.25.03.39.08l4.35,1.68c.23.09.32.19.32.23,0,.05-.07.17-.29.31l-9.29,5.33c-.14.09-.51.35-.35.83l2.33,11.64c.05.21.02.32-.01.37-.02.03-.08.03-.12.03Z"/><path class="cls-1" d="m304.02,233.42c-.49,0-.74-.25-.74-.7l.19-19.02c0-.47.24-.69.73-.69l13.36.12c.26,0,.45.06.56.17s.17.29.17.53l-.03,3.33c0,.46-.24.69-.73.69l-7.71-.07c-.75,0-1.17.39-1.18,1.08v.95c-.01.33.09.61.29.8.2.19.5.3.85.3l4.93.04c.26,0,.45.06.56.17s.17.29.17.53l-.03,3.33c0,.47-.24.69-.74.69l-4.94-.04c-.75,0-1.17.39-1.18,1.08v.95c-.02.67.43,1.09,1.14,1.1l7.69.07c.52,0,.74.21.74.7l-.04,3.33c0,.48-.22.69-.73.69l-13.36-.12Z"/><path class="cls-1" d="m304.02,233.22c-.37,0-.53-.16-.53-.5l.19-19.02c0-.36.14-.49.52-.49l13.36.12c.2,0,.34.04.42.11.07.07.11.21.11.39l-.03,3.33c0,.35-.15.49-.52.49l-7.7-.07c-.86,0-1.38.48-1.39,1.27v.95c-.01.38.11.71.36.94.24.23.59.36,1,.36l4.93.04c.2,0,.34.04.41.11.08.07.11.21.11.39l-.03,3.33c0,.36-.14.49-.52.49l-4.94-.04c-.86,0-1.38.48-1.39,1.27v.95c-.01.38.11.71.36.94.24.23.59.36,1,.36l7.69.07c.4,0,.53.13.53.5l-.04,3.33c0,.37-.13.49-.52.49l-13.36-.12Z"/><path class="cls-1" d="m331.76,231.62c-.33,0-.54-.18-.64-.53l-5.13-18.41c-.06-.23-.06-.42.03-.55.08-.13.25-.23.5-.29l3.45-.84c.09-.02.18-.03.26-.03.33,0,.54.18.64.53l2,7.19c.15.52.53.83,1.05.83.12,0,.24-.02.37-.05l2.95-.72c.71-.17,1.02-.66.83-1.33l-2-7.19c-.06-.22-.05-.4.04-.55.09-.14.25-.24.49-.3l3.44-.84c.11-.03.21-.04.3-.04.21,0,.47.06.61.54l5.13,18.41c.06.23.05.41-.04.55-.09.14-.25.24-.49.3l-3.44.84c-.09.02-.18.03-.27.03-.33,0-.54-.18-.64-.53l-1.26-4.54c-.19-.69-.66-.83-1.01-.83-.12,0-.26.02-.41.05l-2.95.72c-.35.09-.61.25-.75.48-.15.23-.17.52-.08.85l1.26,4.54c.13.46-.04.73-.53.85l-3.44.84c-.09.02-.18.03-.26.03Z"/><path class="cls-1" d="m331.76,231.42c-.15,0-.34-.04-.44-.38l-5.13-18.41c-.05-.18-.05-.32,0-.4s.18-.16.37-.2l3.44-.84c.08-.02.15-.03.21-.03.15,0,.34.04.44.38l2,7.19c.17.61.64.97,1.25.97.14,0,.28-.02.43-.05l2.95-.72c.41-.1.71-.3.88-.57.17-.27.21-.62.1-1l-2-7.19c-.05-.17-.04-.3.02-.39s.18-.17.36-.21l3.44-.84c.09-.02.17-.03.25-.03.12,0,.29,0,.4.39l5.13,18.41c.03.12.06.28-.01.4-.06.09-.18.16-.37.21l-3.44.84c-.08.02-.15.03-.21.03-.15,0-.34-.04-.44-.38l-1.26-4.54c-.24-.85-.87-.98-1.22-.98-.15,0-.3.02-.46.06l-2.95.72c-.41.1-.71.29-.88.57-.17.28-.21.61-.1,1l1.26,4.54c.1.35-.01.52-.38.61l-3.44.84c-.08.02-.15.03-.21.03Z"/><path class="cls-1" d="m359.65,222.52c-2.43,0-4.51-1.35-6-3.89l-3.82-6.52c-.87-1.49-1.27-2.92-1.19-4.23.14-2.18,1.62-4,4.39-5.42,1.58-.81,3.07-1.22,4.42-1.22,2.44,0,4.51,1.35,6,3.89l3.82,6.52c.87,1.49,1.27,2.92,1.19,4.23-.14,2.18-1.62,4-4.39,5.42-1.58.81-3.06,1.22-4.42,1.22Zm-2.7-16.35c-.45,0-.93.14-1.49.42-1.05.54-1.52,1.17-1.48,2.01.04.77.51,1.65,1.09,2.62l2.2,3.75c.89,1.53,1.62,2.61,2.89,2.61.45,0,.93-.14,1.49-.42,2.22-1.14,1.6-2.57.39-4.63l-2.2-3.75c-.89-1.53-1.63-2.61-2.89-2.61Z"/><path class="cls-1" d="m359.65,222.32c-2.35,0-4.37-1.31-5.82-3.79l-3.82-6.52c-.86-1.46-1.25-2.85-1.16-4.12.14-2.11,1.58-3.88,4.28-5.26,1.55-.79,3-1.2,4.32-1.2,2.35,0,4.36,1.31,5.82,3.79l3.82,6.52c1.6,2.73,2.36,6.58-3.12,9.39-1.55.79-3,1.19-4.32,1.19Zm-2.7-16.35c-.48,0-1,.15-1.59.45-1.13.58-1.63,1.27-1.59,2.19.04.82.53,1.71,1.11,2.71l2.2,3.75c.93,1.59,1.69,2.71,3.08,2.71.48,0,1-.15,1.59-.45,1.13-.58,1.63-1.27,1.59-2.19-.04-.82-.53-1.71-1.11-2.71l-2.2-3.75c-.93-1.59-1.69-2.71-3.08-2.71Z"/><path class="cls-1" d="m381.11,207.46c-1.71,0-3.43-.72-5.11-2.13l-10.52-8.85c-.38-.32-.39-.63-.06-.98l2.38-2.48c.18-.19.36-.28.53-.28.16,0,.33.08.51.23l9.27,7.79c1.12.94,2.06,1.67,3.04,1.67.64,0,1.25-.31,1.87-.96.8-.83,1.02-1.58.68-2.35-.31-.72-1.07-1.39-1.95-2.14l-9.27-7.79c-.37-.31-.39-.63-.06-.98l2.38-2.48c.18-.19.36-.28.54-.28.16,0,.33.08.51.23l10.52,8.84c2.55,2.14,4.69,5.64.4,10.1-1.81,1.88-3.72,2.83-5.67,2.83Z"/><path class="cls-1" d="m381.11,207.26c-1.65,0-3.33-.7-4.97-2.08l-10.52-8.85c-.29-.24-.3-.43-.04-.7l2.38-2.48c.1-.1.24-.22.38-.22.1,0,.23.06.37.18l9.27,7.79c1.16.97,2.12,1.72,3.18,1.72.7,0,1.37-.34,2.03-1.03.86-.89,1.09-1.71.72-2.56-.33-.76-1.1-1.45-2.01-2.21l-9.27-7.79c-.28-.24-.3-.44-.04-.7l2.38-2.48c.1-.1.24-.22.38-.22.1,0,.23.06.37.18l10.52,8.84c2.48,2.08,4.55,5.48.38,9.83-1.77,1.84-3.62,2.77-5.52,2.77Z"/><path class="cls-1" d="m395.12,186.85c-1.02,0-1.91-.21-2.47-.38-.43-.14-.6-.42-.52-.87l.62-3.39c.09-.46.34-.52.54-.52.1,0,.22.02.35.05.3.09.61.13.9.13,1.16,0,2.15-.68,2.65-1.82.38-.88.38-1.82,0-2.45-.21-.34-.51-.57-.87-.62-.08-.01-.16-.02-.24-.02-1.03,0-2.07,1.04-3.26,2.23-1.67,1.68-3.75,3.77-6.59,3.77h0c-.78,0-1.59-.16-2.41-.47-.64-.22-2.47-1.19-3.35-3.05-.76-1.61-.67-3.5.26-5.64,1.81-4.17,4.69-5.04,6.79-5.04.9,0,1.66.16,2.13.3.43.14.6.41.52.86l-.63,3.42c-.09.45-.33.51-.55.51-.09,0-.2-.01-.32-.04-.21-.04-.43-.07-.63-.07-1.15,0-2.13.68-2.63,1.83-.29.66-.29,1.31-.02,1.8.18.32.47.54.82.61.08.02.17.02.25.02.93,0,1.92-.96,3.17-2.17,1.83-1.78,4.12-3.99,7.11-3.99.78,0,1.59.16,2.39.46.41.16,1.79.95,2.72,2.48,1.19,1.97,1.19,4.34.02,7.04-1.8,4.14-4.66,5.01-6.74,5.01Z"/><path class="cls-1" d="m395.12,186.65c-.99,0-1.85-.2-2.4-.37-.34-.11-.44-.29-.38-.65l.62-3.39c.07-.35.22-.35.33-.35.08,0,.18.02.29.05.32.09.65.14.96.14,1.25,0,2.31-.73,2.84-1.94.4-.93.4-1.94,0-2.62-.24-.4-.6-.65-1.02-.72-.09-.01-.18-.02-.27-.02-1.13,0-2.19,1.06-3.41,2.3-1.65,1.65-3.69,3.71-6.43,3.71-.75,0-1.54-.15-2.33-.46-.62-.21-2.39-1.15-3.24-2.95-.74-1.56-.65-3.4.26-5.49,1.77-4.07,4.56-4.92,6.59-4.92.88,0,1.61.16,2.07.29.33.11.43.29.37.64l-.63,3.42c-.07.35-.22.35-.34.35-.08,0-.17-.01-.27-.03-.23-.05-.46-.07-.68-.07-1.24,0-2.29.73-2.82,1.95-.31.71-.31,1.43,0,1.97.21.37.55.63.96.71.1.02.2.03.3.03,1.02,0,2.04-.98,3.32-2.23,1.81-1.75,4.06-3.93,6.96-3.93.76,0,1.53.15,2.31.45.39.15,1.71.91,2.61,2.4,1.15,1.91,1.16,4.22,0,6.87-1.76,4.04-4.53,4.89-6.55,4.89Z"/><path class="cls-1" d="m406.57,163.15l-20.22-2.06c-.25-.03-.43-.1-.54-.23-.11-.12-.14-.3-.12-.53l1.45-12.41c.05-.43.26-.62.67-.62.05,0,.1,0,.15,0l3.54.36c.5.05.71.29.66.76l-.83,7.15c-.04.34.03.61.2.82.18.21.46.34.83.38l1.01.1c.06,0,.12,0,.18,0,.62,0,1.04-.36,1.11-.97l.53-4.58c.05-.43.25-.62.66-.62.05,0,.1,0,.16,0l3.54.36c.5.05.71.29.66.77l-.53,4.58c-.08.69.3,1.13,1.03,1.2l1.01.1c.06,0,.12,0,.18,0,.62,0,1.04-.36,1.11-.97l.83-7.15c.05-.43.26-.62.67-.62.05,0,.1,0,.15,0l3.54.36c.26.03.44.1.54.22.1.12.14.3.11.54l-1.45,12.41c-.05.41-.28.62-.69.62-.04,0-.08,0-.13,0Z"/><path class="cls-1" d="m406.59,162.95l-20.22-2.06c-.13-.01-.31-.05-.4-.15-.09-.1-.09-.27-.08-.39l1.45-12.41c.04-.37.2-.45.46-.45.04,0,.08,0,.13,0l3.54.36c.19.02.32.07.39.15.07.08.1.22.08.4l-.83,7.15c-.05.39.04.71.25.96.22.26.54.41.97.46l1.01.1c.07,0,.13,0,.2,0,.73,0,1.23-.44,1.32-1.15l.53-4.58c.04-.38.19-.45.45-.45.04,0,.09,0,.13,0l3.54.36c.13.01.3.05.39.15s.09.27.08.4l-.53,4.58c-.05.39.04.71.25.96.21.26.54.41.97.45l1.01.1c.07,0,.13,0,.2,0,.73,0,1.23-.44,1.32-1.15l.83-7.15c.04-.37.2-.45.46-.45.04,0,.08,0,.13,0l3.54.36c.2.02.33.07.4.15.07.08.09.22.07.4l-1.45,12.41c-.04.31-.18.45-.48.45-.04,0-.07,0-.11,0Z"/></g><path class="cls-1" d="m21.21,47.12c-.15,0-.3-.05-.46-.16l-12.28-7.85c-.25-.16-.49-.24-.72-.24-.34,0-.65.18-.9.52l-2.51,3.44c-.16.22-.35.34-.57.34-.15,0-.3-.05-.46-.16l-2.94-1.88c-.21-.13-.33-.28-.36-.44-.03-.16.02-.34.17-.53l9.18-12.57c.17-.24.35-.35.55-.35.14,0,.3.06.48.17l2.94,1.88c.2.13.32.28.36.43.03.16-.02.34-.16.53l-2.51,3.44c-.2.28-.28.55-.23.81.05.27.23.5.54.7l12.28,7.85c.21.13.33.28.36.44.03.16-.02.34-.17.53l-2.01,2.75c-.16.22-.36.34-.57.34Z"/><path class="cls-1" d="m30.73,35.6c-.2,0-.38-.1-.55-.29l-12.79-14.79c-.16-.19-.24-.36-.22-.51.02-.15.13-.31.33-.46l2.77-2.09c.17-.13.33-.19.49-.19.2,0,.38.1.55.3l4.99,5.78c.25.29.55.44.88.44.26,0,.51-.09.76-.28l2.37-1.79c.57-.44.64-1,.17-1.53l-4.99-5.78c-.15-.18-.22-.35-.2-.51.02-.16.12-.32.31-.46l2.77-2.09c.18-.14.35-.21.5-.21.18,0,.36.1.54.31l12.79,14.79c.16.18.23.35.21.51-.02.16-.12.32-.32.47l-2.77,2.09c-.17.13-.33.19-.49.19-.2,0-.38-.1-.55-.3l-3.16-3.65c-.26-.3-.56-.46-.87-.46-.25,0-.51.1-.77.3l-2.37,1.79c-.28.21-.44.45-.47.72-.04.27.07.54.3.81l3.16,3.65c.32.37.28.68-.11.98l-2.77,2.09c-.17.13-.33.19-.49.19Z"/><path class="cls-1" d="m48.45,23.73c-.28,0-.48-.15-.61-.46l-7.54-17.67c-.19-.44-.05-.73.42-.9L53.11.08c.14-.05.27-.08.38-.08.16,0,.4.05.58.47l1.32,3.09c.09.22.11.4.04.55-.07.15-.22.27-.45.35l-7.14,2.66c-.34.13-.56.31-.68.55-.12.25-.11.54.03.86l.38.88c.19.46.55.71,1,.71.16,0,.33-.03.51-.1l4.58-1.71c.14-.05.27-.08.38-.08.16,0,.4.05.58.47l1.32,3.09c.09.21.11.4.04.54-.07.15-.22.27-.46.36l-4.57,1.71c-.34.12-.56.31-.68.55-.12.25-.11.54.03.86l.38.88c.19.46.55.71,1,.71.16,0,.33-.03.51-.1l7.14-2.67c.14-.05.27-.08.38-.08.16,0,.4.05.58.47l1.32,3.09c.19.45.07.72-.42.9l-12.4,4.63c-.13.05-.24.07-.35.07Z"/></g></g></svg>